<svg fill="currentColor" version="1.2" xmlns="http://www.w3.org/2000/svg" viewBox="0 0 40 40" width="20" height="20">
	<defs>
		<clipPath clipPathUnits="userSpaceOnUse" id="cp1">
			<path d="m0 0h40v40h-40z"/>
		</clipPath>
		<clipPath clipPathUnits="userSpaceOnUse" id="cp2">
			<path d="m9 6c-1.66 0-3 1.34-3 3 0 1.66 1.34 3 3 3 1.66 0 3-1.34 3-3 0-1.66-1.34-3-3-3zm5 3c0 0.83 0.67 1.5 1.5 1.5h17c0.83 0 1.5-0.67 1.5-1.5 0-0.83-0.67-1.5-1.5-1.5h-17c-0.83 0-1.5 0.67-1.5 1.5zm-5 14c1.66 0 3-1.34 3-3 0-1.66-1.34-3-3-3-1.66 0-3 1.34-3 3 0 1.66 1.34 3 3 3zm5-3c0 0.83 0.67 1.5 1.5 1.5h17c0.83 0 1.5-0.67 1.5-1.5 0-0.83-0.67-1.5-1.5-1.5h-17c-0.83 0-1.5 0.67-1.5 1.5zm-5 14c1.66 0 3-1.34 3-3 0-1.66-1.34-3-3-3-1.66 0-3 1.34-3 3 0 1.66 1.34 3 3 3zm5-3c0 0.83 0.67 1.5 1.5 1.5h17c0.83 0 1.5-0.67 1.5-1.5 0-0.83-0.67-1.5-1.5-1.5h-17c-0.83 0-1.5 0.67-1.5 1.5z"/>
		</clipPath>
	</defs>
	<g id="Page 1" clip-path="url(#cp1)">
		<g id="Mask" clip-path="url(#cp2)">
			<path id="Path 2" class="s0" d="m9 14c2.76 0 5-2.24 5-5h-4c0 0.55-0.45 1-1 1zm-5-5c0 2.76 2.24 5 5 5v-4c-0.55 0-1-0.45-1-1zm5-5c-2.76 0-5 2.24-5 5h4c0-0.55 0.45-1 1-1zm5 5c0-2.76-2.24-5-5-5v4c0.55 0 1 0.45 1 1zm18.5-3.5h-17v4h17zm3.5 3.5c0-1.93-1.57-3.5-3.5-3.5v4c-0.28 0-0.5-0.22-0.5-0.5zm-3.5 3.5c1.93 0 3.5-1.57 3.5-3.5h-4c0-0.28 0.22-0.5 0.5-0.5zm-17 0h17v-4h-17zm-3.5-3.5c0 1.93 1.57 3.5 3.5 3.5v-4c0.28 0 0.5 0.22 0.5 0.5zm3.5-3.5c-1.93 0-3.5 1.57-3.5 3.5h4c0 0.28-0.22 0.5-0.5 0.5zm-5.5 14.5c0 0.55-0.45 1-1 1v4c2.76 0 5-2.24 5-5zm-1-1c0.55 0 1 0.45 1 1h4c0-2.76-2.24-5-5-5zm-1 1c0-0.55 0.45-1 1-1v-4c-2.76 0-5 2.24-5 5zm1 1c-0.55 0-1-0.45-1-1h-4c0 2.76 2.24 5 5 5zm23.5-4.5h-17v4h17zm3.5 3.5c0-1.93-1.57-3.5-3.5-3.5v4c-0.28 0-0.5-0.22-0.5-0.5zm-3.5 3.5c1.93 0 3.5-1.57 3.5-3.5h-4c0-0.28 0.22-0.5 0.5-0.5zm-17 0h17v-4h-17zm-3.5-3.5c0 1.93 1.57 3.5 3.5 3.5v-4c0.28 0 0.5 0.22 0.5 0.5zm3.5-3.5c-1.93 0-3.5 1.57-3.5 3.5h4c0 0.28-0.22 0.5-0.5 0.5zm-5.5 14.5c0 0.55-0.45 1-1 1v4c2.76 0 5-2.24 5-5zm-1-1c0.55 0 1 0.45 1 1h4c0-2.76-2.24-5-5-5zm-1 1c0-0.55 0.45-1 1-1v-4c-2.76 0-5 2.24-5 5zm1 1c-0.55 0-1-0.45-1-1h-4c0 2.76 2.24 5 5 5zm23.5-4.5h-17v4h17zm3.5 3.5c0-1.93-1.57-3.5-3.5-3.5v4c-0.28 0-0.5-0.22-0.5-0.5zm-3.5 3.5c1.93 0 3.5-1.57 3.5-3.5h-4c0-0.28 0.22-0.5 0.5-0.5zm-17 0h17v-4h-17zm-3.5-3.5c0 1.93 1.57 3.5 3.5 3.5v-4c0.28 0 0.5 0.22 0.5 0.5zm3.5-3.5c-1.93 0-3.5 1.57-3.5 3.5h4c0 0.28-0.22 0.5-0.5 0.5z"/>
		</g>
	</g>
</svg>