<svg fill="currentColor" version="1.2" xmlns="http://www.w3.org/2000/svg" viewBox="0 0 40 40" width="20" height="20">
	<defs>
		<clipPath clipPathUnits="userSpaceOnUse" id="cp1">
			<path d="m0 0h40v40h-40z"/>
		</clipPath>
	</defs>
	<g id="Page 1" clip-path="url(#cp1)">
		<path id="Path 1" class="s0" d="m38.75-0.31h-2.5v2.5h2.5z"/>
		<path id="Path 2" class="s0" d="m30 17.19v-5h5v5h5v1.58c0 1.83-0.16 4-0.51 5.71q-0.32 1.43-0.86 2.81-0.56 1.4-1.25 2.62-0.89 1.56-2.09 2.98l-0.04 0.05-0.07 0.08q-0.29 0.34-0.6 0.67-0.36 0.39-0.75 0.75c-3.2 3.08-7.37 5.01-11.73 5.45-0.52 0.05-1.57 0.11-2.1 0.11-0.53 0-1.58-0.06-2.1-0.11-4.36-0.44-8.53-2.37-11.73-5.45q-0.39-0.36-0.75-0.75-0.33-0.34-0.62-0.7l-0.09-0.1q-1.2-1.42-2.09-2.98-0.69-1.22-1.25-2.62-0.54-1.38-0.86-2.81c-0.35-1.71-0.51-3.88-0.51-5.71v-18.77h10v17.19c0 0 0 1.32 0.01 1.75l0.01 0.1v0.01q0.02 0.83 0.1 1.64c0.16 1.55 0.5 3.01 1.21 4.25q0.29 0.54 0.65 1.04c1.51 2 3.8 3.51 6.65 3.93 0.34 0.05 1.03 0.09 1.37 0.09 0.34 0 1.03-0.04 1.37-0.09 2.85-0.42 5.14-1.93 6.65-3.93q0.36-0.5 0.65-1.04c0.71-1.24 1.05-2.7 1.21-4.25q0.08-0.81 0.1-1.65l0.01-0.1c0.01-0.43 0.01-1.75 0.01-1.75z"/>
		<path id="Path 3" class="s0" d="m31.25 3.44h3.75v3.75h5v5h-5v-5h-3.75z"/>
	</g>
</svg>