<svg fill="currentColor" version="1.2" xmlns="http://www.w3.org/2000/svg" viewBox="0 0 40 40" width="20" height="20">
	<defs>
		<clipPath clipPathUnits="userSpaceOnUse" id="cp1">
			<path d="m0 0h40v40h-40z"/>
		</clipPath>
	</defs>
	<g id="Page 1" clip-path="url(#cp1)">
		<path id="Path 1" class="s0" d="m33.71 32.29l-5.7-5.69c1.86-2.18 2.99-5.01 2.99-8.1 0-6.9-5.6-12.5-12.5-12.5-6.9 0-12.5 5.6-12.5 12.5 0 6.9 5.6 12.5 12.5 12.5 3.09 0 5.92-1.12 8.1-2.98l5.69 5.69q0.31 0.29 0.71 0.29 0.4 0 0.71-0.3c0.39-0.38 0.39-1.02 0-1.41zm-25.71-13.79c0-5.79 4.71-10.5 10.5-10.5 5.79 0 10.5 4.71 10.5 10.5 0 5.79-4.71 10.5-10.5 10.5-5.79 0-10.5-4.71-10.5-10.5z"/>
	</g>
</svg>