<svg fill="currentColor" version="1.2" xmlns="http://www.w3.org/2000/svg" viewBox="0 0 40 40" width="20" height="20">
	<defs>
		<clipPath clipPathUnits="userSpaceOnUse" id="cp1">
			<path d="m0 0h40v40h-40z"/>
		</clipPath>
	</defs>
	<g id="Page 1" clip-path="url(#cp1)">
		<path id="Path 1" fill-rule="evenodd" class="s0" d="m8 6h9c1.1 0 2 0.9 2 2v9c0 1.1-0.9 2-2 2h-9c-1.1 0-2-0.9-2-2v-9c0-1.1 0.9-2 2-2zm9 11v-9h-9v9zm-9 4h9c1.1 0 2 0.9 2 2v9c0 1.1-0.9 2-2 2h-9c-1.1 0-2-0.9-2-2v-9c0-1.1 0.9-2 2-2zm9 11v-9h-9v9zm17-24v9c0 1.1-0.9 2-2 2h-9c-1.1 0-2-0.9-2-2v-9c0-1.1 0.9-2 2-2h9c1.1 0 2 0.9 2 2zm-11 0v9h9v-9zm0 13h9c1.1 0 2 0.9 2 2v9c0 1.1-0.9 2-2 2h-9c-1.1 0-2-0.9-2-2v-9c0-1.1 0.9-2 2-2zm9 11v-9h-9v9z"/>
	</g>
</svg>